<?xml version="1.0" encoding="utf-8"?>
<!DOCTYPE svg PUBLIC "-//W3C//DTD SVG 1.0//EN" "http://www.w3.org/TR/2001/REC-SVG-20010904/DTD/svg10.dtd">
<svg version="1.0" xmlns="http://www.w3.org/2000/svg" width="655px" height="166px" viewBox="0 0 655 166" preserveAspectRatio="xMidYMid meet">
 <g fill="#053f75">
  <path d="M82.3 156.3 c-3.5 -0.3 -4.3 -0.8 -4.3 -2.4 0 -1 0.5 -1.9 1 -1.9 0.6 0 1 -0.7 1 -1.5 0 -2.6 1.6 -1.7 4.4 2.5 1.4 2.2 2.5 3.9 2.4 3.8 -0.2 -0.1 -2.2 -0.3 -4.5 -0.5z"/>
  <path d="M58 154.7 c-0.8 -0.8 -6.3 -4.4 -12.2 -8.1 -6 -3.8 -10.6 -7.2 -10.3 -7.6 0.3 -0.4 -0.3 -0.7 -1.2 -0.6 -0.9 0 -1.8 -0.5 -2 -1.2 -0.4 -1 0.5 -1.3 3.3 -1 3.2 0.2 4 0.7 4.2 2.6 0.3 1.6 1 2.2 2.8 2.2 2.9 0 8.4 2.6 8.4 4 0 0.5 1.9 1.3 4.2 1.7 3.3 0.7 4.4 1.4 4.9 3.3 0.4 1.4 0.7 2 0.8 1.4 0.2 -1.6 11.1 -13.4 12.4 -13.4 0.7 0 2.4 2 3.8 4.4 l2.7 4.4 -3.4 1.8 c-3.3 1.8 -4.4 3.4 -2.4 3.4 0.6 0 1 0.9 1 2 0 1.8 -0.7 2 -7.8 2 -5.1 0 -8.3 -0.5 -9.2 -1.3z"/>
  <path d="M28 58.5 c0 -0.8 -0.4 -1.5 -1 -1.5 -0.5 0 -1 -1.6 -1 -3.5 0 -1.9 0.5 -3.5 1 -3.5 0.6 0 1 -1.9 1 -4.1 l0 -4.2 7.7 0.7 c4.2 0.3 7.8 0.8 8.1 1.1 0.3 0.2 -0.9 1.9 -2.6 3.6 -1.7 1.7 -4.8 5.3 -6.9 8 -3.8 4.8 -6.3 6.2 -6.3 3.4z"/>
 </g>
 <g fill="#312f67">
  <path d="M237.2 142 c-8.2 -1.2 -10.2 -1.8 -10.2 -3.5 0 -1.1 1.8 -1.4 8.2 -1.2 5.6 0.1 8.2 -0.2 8.5 -1 0.3 -0.7 1.5 -2.8 2.8 -4.8 l2.4 -3.5 -4.7 0 c-5.7 0 -15.5 -2.4 -16 -3.9 -0.2 -0.6 -0.9 -1.1 -1.6 -1.1 -0.8 0 -2.5 -0.9 -4 -2.1 -1.9 -1.5 -2.6 -3 -2.6 -5.5 0 -1.9 0.2 -3.4 0.5 -3.4 0.3 0 1.9 1.5 3.5 3.4 1.7 1.8 5.4 4.4 8.2 5.7 4.8 2.2 6.6 2.4 20.3 2.4 13.5 0 15.5 -0.2 20 -2.3 6.5 -3 8.3 -4.7 11.1 -10.7 2 -4.1 2.4 -6.6 2.4 -14 0 -10.3 -1.7 -15.1 -7.1 -20.2 -4.9 -4.7 -10.8 -6.5 -23.1 -7 -9.7 -0.5 -10.8 -0.7 -10.8 -2.4 0 -1.7 0.8 -1.9 6.5 -1.9 l6.5 0 0 -3.4 c0 -2.1 0.6 -3.6 1.5 -4 0.8 -0.3 1.5 -1 1.5 -1.6 0 -0.6 -5.4 -1 -15 -1 -12.1 0 -15 -0.3 -15 -1.4 0 -2 3 -2.6 16.5 -3.2 39.3 -2 61.5 14.9 61.5 46.6 0 22.8 -12.2 38.2 -34.2 43.5 -7.7 1.9 -29.1 2.7 -37.6 1.5z"/>
  <path d="M218.3 136.6 c-6 -2.8 -13.3 -9.2 -16.2 -14.2 l-2 -3.4 2.9 0 c2.8 0 3 0.3 3 3.5 0 3.1 0.3 3.5 2.6 3.5 2.2 0 10.3 5.2 11.2 7.3 0.2 0.4 1.2 0.7 2.3 0.7 1.4 0 1.9 0.7 1.9 2.5 0 1.4 -0.1 2.5 -0.2 2.5 -0.2 0 -2.6 -1.1 -5.5 -2.4z"/>
  <path d="M135.2 118.8 l-3.3 -4.3 2.6 -0.3 c1.4 -0.2 3.3 0.2 4.1 0.9 1.5 1.2 2 7.9 0.6 7.9 -0.4 0 -2.2 -1.9 -4 -4.2z"/>
  <path d="M198.2 114.8 c-4 -11.4 -3.7 -31.8 0.5 -31.8 1.3 0 1.5 1.1 1 7.3 -0.4 3.9 -0.2 9.9 0.3 13.2 2.3 13.7 2.3 14.5 0.8 14.5 -0.8 0 -1.9 -1.5 -2.6 -3.2z"/>
  <path d="M158 107.4 c0 -2.1 0.5 -2.4 3.5 -2.4 2.2 0 3.5 0.5 3.5 1.3 0 0.8 -1.6 1.8 -3.5 2.4 -3.3 1.1 -3.5 1 -3.5 -1.3z"/>
  <path d="M169 101.7 c0 -3.4 0.2 -3.7 3 -3.7 1.7 0 3 0.4 3 0.8 0 0.5 -1.3 2.1 -3 3.7 l-3 2.9 0 -3.7z"/>
  <path d="M214 98 c0 -4.3 0.3 -5 2 -5 1.7 0 2 0.7 2 5 0 4.3 -0.3 5 -2 5 -1.7 0 -2 -0.7 -2 -5z"/>
  <path d="M174 93.5 c0 -1.9 0.5 -3.5 1 -3.5 0.6 0 1 -3.3 1 -8 0 -6.2 0.3 -8 1.4 -8 3.1 0 3.6 9.7 0.9 17.9 -1.9 6 -4.3 6.9 -4.3 1.6z"/>
  <path d="M80.4 82.9 c-0.1 -2.5 0.2 -2.9 2.7 -2.9 2.4 0 2.9 -0.4 2.9 -2.5 0 -2.2 0.4 -2.5 3.7 -2.5 l3.6 0 -2.2 2.4 c-1.2 1.3 -4.1 3.7 -6.4 5.3 l-4.2 3.1 -0.1 -2.9z"/>
  <path d="M218 80.6 c0 -2 0.5 -3.6 1 -3.6 0.6 0 1 -0.5 1 -1.1 0 -2 2.9 -3.9 5.9 -3.9 2.4 0 3.1 -0.4 3.1 -1.9 0 -2.2 1.9 -3.1 6.6 -3.1 4.8 0 4.5 2.6 -0.4 4 -5.2 1.4 -10.2 4.8 -13 9 -3.1 4.7 -4.2 4.9 -4.2 0.6z"/>
  <path d="M200 74.2 c0 -1.1 5.5 -8.8 6.9 -9.7 0.7 -0.4 1.1 0.7 1.1 2.9 0 2 -0.4 3.6 -0.9 3.6 -0.5 0 -1.1 0.9 -1.4 2 -0.3 1.4 -1.4 2 -3.1 2 -1.4 0 -2.6 -0.4 -2.6 -0.8z"/>
  <path d="M168.2 63.4 c-0.7 -0.8 -1.2 -2.6 -1 -4 l0.3 -2.6 2.8 2.2 c1.5 1.2 3.2 3 3.7 4.1 0.9 1.7 0.7 1.9 -1.7 1.9 -1.5 -0.1 -3.4 -0.7 -4.1 -1.6z"/>
  <path d="M622.2 61 c0 -1.9 0.2 -2.7 0.5 -1.7 0.2 0.9 0.2 2.5 0 3.5 -0.3 0.9 -0.5 0.1 -0.5 -1.8z"/>
 </g>
 <g fill="#3b2b61">
  <path d="M357.2 128.3 c-24.3 -44.4 -41.2 -75.5 -41.2 -75.9 0 -0.3 5.9 -0.3 13 -0.2 l13.1 0.3 8.3 16 c4.5 8.8 12.2 23.7 17 33 4.8 9.4 9.1 17.4 9.6 17.9 0.5 0.5 3.3 -4 6.4 -10.3 3.1 -6.1 6.1 -11.1 6.6 -11.1 1.5 0 1.2 7 -0.2 7 -0.8 0.1 -0.6 0.6 0.5 1.4 0.9 0.7 1.7 2 1.7 2.9 0 0.9 1.1 1.9 2.5 2.3 1.4 0.3 2.5 1 2.5 1.4 0 0.5 1.9 0.6 4.2 0.2 l4.2 -0.5 -2.1 3.4 c-1.1 1.9 -4.6 8.2 -7.7 14.2 l-5.7 10.7 -12.9 0 -12.9 0 -6.9 -12.7z"/>
  <path d="M616.2 60 c0 -1.9 0.2 -2.7 0.5 -1.7 0.2 0.9 0.2 2.5 0 3.5 -0.3 0.9 -0.5 0.1 -0.5 -1.8z"/>
 </g>
 <g fill="#273671">
  <path d="M234.7 141.3 c-0.1 0 -1.7 -0.3 -3.5 -0.6 -6.5 -1 -13.4 -4.2 -20 -9.2 -3.7 -2.8 -7.2 -6.1 -7.7 -7.2 -0.6 -1.2 -1.6 -2.8 -2.3 -3.6 -2.5 -3 -5.3 -15.6 -5.3 -24.2 -0.1 -15.3 2.9 -23.3 12.7 -33.1 5.9 -6 15.1 -10 25.4 -11.3 3.8 -0.5 7.3 -1.2 7.9 -1.5 0.5 -0.4 1.2 -0.2 1.5 0.2 0.3 0.5 5.4 1 11.3 1.1 5.9 0.1 11.7 0.3 12.8 0.6 1.1 0.2 2.3 0.4 2.8 0.4 1.1 0.1 0.9 2.9 -0.3 3.6 -0.6 0.4 -1.7 0.2 -2.4 -0.4 -0.9 -0.8 -1.7 -0.3 -3 1.9 -0.9 1.7 -2.2 3 -2.8 3 -0.7 0 -0.7 0.4 0 1.2 0.5 0.7 1.2 2.2 1.6 3.4 0.6 2 0.3 2.1 -6.1 2.3 -3.8 0.1 -9.3 0.6 -12.3 1.1 -3 0.6 -6.8 1.2 -8.5 1.4 -3.5 0.4 -10.2 4.1 -12.8 7.1 -4.8 5.3 -7.4 18.2 -5.3 26.2 2 7.3 5.6 13.5 9.1 15.3 1.6 0.8 3.6 2.1 4.3 2.8 0.8 0.7 2.1 1.1 2.8 0.8 0.8 -0.3 1.4 0 1.4 0.5 0 0.7 1.1 0.9 2.5 0.7 1.4 -0.3 2.5 -0.2 2.5 0.2 0 0.3 2.6 0.8 5.7 0.9 10.1 0.4 11.3 1.3 6.6 5.4 -4.2 3.7 -8.4 11.1 -5.1 9.1 0.6 -0.4 0.8 -0.3 0.5 0.4 -0.4 0.5 -1.6 0.8 -2.7 0.5 -1.1 -0.3 -2 0 -2 0.6 0 0.8 -1.6 1.1 -4.6 0.9 -2.5 -0.2 -4.6 -0.4 -4.7 -0.5z"/>
  <path d="M80 122.5 l0 -18.5 6.1 -4.5 6.1 -4.5 28.7 0 c26.6 0 28.8 -0.1 31.8 -2 5.8 -3.5 6.9 -14.2 1.9 -18.9 -3.8 -3.5 -8 -4.1 -31.7 -4.1 l-22.7 0 -4.4 3.6 c-2.3 1.9 -5.2 4.3 -6.3 5.2 -1.1 0.9 -3.6 2.9 -5.5 4.3 l-3.6 2.6 -0.3 -11.3 c-0.1 -6.2 0.1 -13.8 0.4 -16.9 l0.7 -5.6 38.7 0.3 c36.9 0.3 38.8 0.4 43.2 2.4 5.9 2.7 11.6 8.5 14.1 14.2 2.3 5.1 2.9 21.5 0.9 23.5 -0.6 0.6 -1.1 1.8 -1.1 2.7 0 1.9 -6.3 9 -10 11.2 -1.4 0.8 -4.6 2.1 -7.2 2.9 -2.7 0.7 -4.8 1.6 -4.8 2 0 0.4 1.9 2.9 4.3 5.5 2.3 2.7 7.6 9 11.7 13.9 4.1 5 7.9 9.3 8.5 9.7 0.5 0.4 -5.3 0.8 -13 0.7 l-14 0 -7 -9 c-3.8 -4.9 -7.5 -9.8 -8.1 -10.9 -0.5 -1 -2.4 -3.3 -4.1 -5 l-3.1 -3.2 -13.9 0 -13.8 0.1 0 14.1 0 14 -11.2 0 -11.3 0 0 -18.5z"/>
  <path d="M255 131.6 c0 -0.8 0.5 -1.8 1 -2.1 0.6 -0.3 1 0.1 1 0.9 0 0.8 -0.4 1.8 -1 2.1 -0.5 0.3 -1 -0.1 -1 -0.9z"/>
 </g>
 <g fill="#452b5f">
  <path d="M398 118 c0 -0.5 -0.9 -1 -2 -1 -1.1 0 -2 -0.4 -2 -0.9 0 -0.5 -1.1 -1.2 -2.5 -1.5 -1.6 -0.4 -2.5 -1.3 -2.5 -2.5 0 -1 -0.7 -2.1 -1.5 -2.5 -0.8 -0.3 -1.5 -1.6 -1.5 -3 0 -2.9 16.5 -36.6 18 -36.6 1.3 0 1.3 5.6 0 8 -0.9 1.6 -0.5 2.1 2.5 3.1 1.9 0.7 3.8 2.2 4.1 3.3 0.9 2.7 2.9 4.6 4.8 4.6 0.9 0 1.6 0.3 1.6 0.6 0 1.7 -13.7 26.1 -15.5 27.6 -2.3 2 -3.5 2.2 -3.5 0.8z"/>
 </g>
 <g fill="#0a4880">
  <path d="M58.3 154.8 c-0.6 -0.7 -1.3 -2.1 -1.6 -3.1 -0.4 -1.1 -1.4 -1.7 -2.4 -1.4 -1 0.2 -3.1 -0.6 -4.8 -1.8 -1.6 -1.2 -4.9 -3.2 -7.2 -4.3 -2.3 -1.2 -4.8 -3 -5.5 -3.9 -0.7 -1 -1.9 -1.8 -2.5 -1.9 -2.9 -0.2 -3.3 -0.5 -3.3 -1.9 0 -2.4 19.1 -2.2 21.2 0.3 2.3 2.7 5.8 9.2 5.8 10.8 0 0.8 0.6 1.4 1.4 1.4 1.5 0 2.6 2.1 2.6 5.1 0 2.1 -2.3 2.5 -3.7 0.7z"/>
  <path d="M70.3 155.3 c-2.5 -0.5 -3 -1.8 -1.2 -2.9 0.8 -0.5 0.7 -0.9 -0.1 -1.4 -1 -0.6 -0.6 -1.5 1.3 -3.4 1.5 -1.5 2.9 -2.6 3.2 -2.7 0.2 0 1.2 -0.2 2.1 -0.6 1.2 -0.4 2.6 0.5 4.5 2.8 3.2 3.8 3.7 7.4 1.3 8.3 -1.7 0.6 -7.5 0.6 -11.1 -0.1z"/>
  <path d="M63 150.7 c0 -2 0.4 -3.7 1 -3.7 0.5 0 2 -1.1 3.4 -2.5 1.4 -1.4 3 -2.5 3.6 -2.5 0.5 0 1 -1.1 1 -2.5 0 -2.9 1.5 -3.3 2.9 -0.7 0.7 1.3 -0.4 3.1 -5.5 8.7 l-6.4 6.9 0 -3.7z"/>
  <path d="M40 122.5 c0 -0.9 -0.9 -1.5 -2.5 -1.5 -1.8 0 -2.5 -0.5 -2.5 -2 0 -1.1 -0.5 -2 -1.2 -2 -0.6 0 -0.4 -0.8 0.6 -1.9 1.6 -1.8 1.6 -2.1 -0.4 -6.1 l-2.1 -4.1 3.3 0.3 c3 0.3 3.4 0.7 4.2 4.6 0.5 2.3 1.2 4.2 1.5 4.2 0.6 0 2.1 -3 4 -8.2 0.9 -2.3 1.6 -2.8 4.6 -2.8 3.2 0 3.5 0.3 3.5 2.9 0 3.3 -3.8 13.1 -5.1 13.1 -0.5 0 -0.9 1.1 -0.9 2.5 0 2.2 -0.4 2.5 -3.5 2.5 -2.4 0 -3.5 -0.5 -3.5 -1.5z"/>
  <path d="M50 96.8 c0 -1.3 0.8 -4.9 1.7 -8 1.6 -5.1 2.1 -5.8 4.4 -5.8 l2.7 0 -3 8 c-3 7.7 -5.8 10.5 -5.8 5.8z"/>
  <path d="M27.4 58.8 c-0.4 -1.3 -1.7 -3.9 -3 -5.8 -2.6 -3.7 -3 -7 -1.4 -10.1 1.2 -2.1 3.6 -2.3 11.4 -1.3 3.7 0.5 4.6 1.1 4.6 2.6 0 1.7 -0.5 1.9 -4 1.3 -3.7 -0.6 -3.9 -0.5 -3.5 1.6 0.3 1.2 0.9 2.7 1.4 3.2 0.6 0.6 0.4 1.8 -0.5 3.2 -0.8 1.3 -1.4 2.7 -1.3 3.1 0.8 4.4 -2.4 6.2 -3.7 2.2z"/>
 </g>
 <g fill="#532c5d">
  <path d="M410.4 91.8 c-1.6 -1.8 -2.8 -3.6 -2.6 -4 0.1 -0.5 -0.3 -0.8 -0.9 -0.8 -0.5 0 -0.7 -0.6 -0.3 -1.2 0.4 -0.7 0.4 -1 -0.1 -0.6 -0.4 0.4 -1.4 0.3 -2.2 -0.3 -0.9 -0.9 -1.3 -0.8 -1.3 0 0 0.6 -0.5 1.1 -1.1 1.1 -0.6 0 -0.9 -0.6 -0.7 -1.2 0.3 -0.7 -0.1 -1.8 -0.8 -2.5 -1.7 -1.8 -1 -4.1 5.7 -18 l5.8 -12.3 12.9 0 12.9 0 -9.2 17.3 c-5.1 9.4 -10.6 19.1 -12.2 21.5 l-2.9 4.2 -3 -3.2z"/>
 </g>
 <g fill="#085088">
  <path d="M55.5 149.4 c-7.5 -12.2 -6.5 -11.5 -16.3 -11.3 -9.9 0.1 -14.2 -0.7 -14.2 -2.7 0 -1.1 1.9 -1.4 8.3 -1.4 12.1 0 18.8 1 19.5 2.9 0.3 0.9 0.8 1.8 1.1 2.1 1.4 1.2 6.1 9.1 6.1 10.2 0 0.9 0.3 0.9 1.2 0 0.7 -0.7 2 -1.2 3 -1.2 1.2 0 1.8 -0.8 1.8 -2.3 0 -2.7 4.8 -7.7 7.3 -7.7 0.9 0 1.7 0.7 1.7 1.6 0 1.8 -12.9 16.4 -14.5 16.4 -0.5 0 -2.8 -3 -5 -6.6z"/>
  <path d="M36 122.8 c-3.6 -6.3 -3.6 -6.3 -0.9 -8.1 1.3 -1 1.7 -1.7 1 -2.2 -0.6 -0.3 -0.8 -1.1 -0.5 -1.7 0.4 -0.6 0 -1.6 -0.8 -2.2 -2.6 -1.9 -6 -9.4 -4.5 -10 0.8 -0.3 0.7 -0.5 -0.3 -0.4 -2 0.2 -5 -1.2 -5 -2.3 0 -0.5 0.6 -0.9 1.3 -0.9 0.7 0 7.3 -2.9 14.7 -6.5 12.5 -6.1 18 -7.8 18 -5.6 0 0.5 -0.6 1.6 -1.2 2.3 -0.7 0.7 -1.3 1.8 -1.4 2.3 0 0.6 -0.6 2.4 -1.3 4 -2 4.6 -2.4 8.6 -1.1 11 1 1.8 0.4 3.9 -3.7 13.8 -4.7 11.5 -4.9 11.7 -8 11.7 -2.9 0 -3.6 -0.6 -6.3 -5.2z"/>
  <path d="M24.9 54.5 c-0.7 -1.9 -1.6 -3.5 -2 -3.5 -1.7 0 -1.9 -4 -0.3 -7.3 l1.6 -3.4 8.7 -0.1 c8.9 0 12.1 0.9 12.1 3.3 0 2.4 -4.6 2.8 -13 1.3 -4.4 -0.8 -8 -1.3 -8 -1 0 0.2 1.6 3.2 3.5 6.6 1.9 3.5 3.5 6.6 3.5 6.9 0 0.4 -1.1 0.7 -2.4 0.7 -1.9 0 -2.8 -0.8 -3.7 -3.5z"/>
 </g>
 <g fill="#bd2b21">
  <path d="M472 138 c0 -2.3 0.4 -3 2 -3 1.6 0 2 0.7 2 3 0 2.3 -0.4 3 -2 3 -1.6 0 -2 -0.7 -2 -3z"/>
  <path d="M506.2 126.9 l13.3 -14.2 0.3 4 c0.2 3.2 0.8 4.3 2.8 5.2 1.4 0.6 3.1 1.1 3.9 1.1 0.9 0 1.5 0.9 1.5 2.2 l0 2.1 2.4 -2.2 c1.7 -1.6 3.3 -2.2 5.7 -1.9 l3.4 0.3 -8 8.7 -8 8.7 -15.3 0.1 -15.4 0 13.4 -14.1z"/>
  <path d="M524 107.5 c1.9 -1.9 3.5 -3.5 3.7 -3.5 0.2 0 0.3 1.6 0.3 3.5 0 3.4 -0.1 3.5 -3.7 3.5 l-3.7 0 3.4 -3.5z"/>
  <path d="M532.5 99 c1.5 -1.6 1.5 -2.2 0.5 -3.5 -1.1 -1.3 -0.8 -1.5 1.9 -1.5 2.9 0 3.1 0.2 3.1 3.5 0 3.4 -0.1 3.5 -3.7 3.5 -3.5 0 -3.6 0 -1.8 -2z"/>
 </g>
 <g fill="#c93223">
  <path d="M454 139 c0 -1.5 0.7 -2 2.9 -2 1.6 0 3.1 -0.6 3.4 -1.4 0.4 -1 2.4 -1.6 5.9 -1.8 l5.3 -0.3 0.3 -7.7 c0.3 -7 0.5 -7.8 2.2 -7.8 1.8 0 2 0.7 2 9.3 0 14.5 0.6 13.7 -11.6 13.7 -9.7 0 -10.4 -0.1 -10.4 -2z"/>
  <path d="M496.9 138.6 c1.7 -2.1 5.7 -4.4 4.7 -2.7 -0.5 0.7 0.2 1.1 1.6 1.1 1.8 0 2 -0.2 0.8 -1 -1.3 -0.8 -1.2 -1 0.3 -1 0.9 0 1.7 0.3 1.7 0.8 -0.1 2.1 -2.2 3.5 -6.1 3.9 -4 0.5 -4.2 0.4 -3 -1.1z"/>
  <path d="M529.6 130.8 c0.4 -0.7 0.3 -0.8 -0.4 -0.4 -1.6 1 -5.2 -1.2 -4.6 -2.8 0.3 -0.9 -0.5 -1.5 -2.3 -1.9 -1.6 -0.3 -4.1 -1.7 -5.7 -3 -3.7 -3.2 -3.3 -3.8 10 -17.4 7.1 -7.3 7.8 -8.4 6.5 -9.8 -1.3 -1.3 -0.7 -2.2 4.9 -8.2 3.5 -3.7 6.9 -7.4 7.7 -8.2 1.1 -1.3 1.5 -1.2 3.1 0.2 1.4 1.3 2.1 1.4 3 0.5 0.9 -0.9 1.2 2.9 1.2 16.6 0 15.2 -0.2 17.7 -1.4 16.7 -1.1 -0.9 -2.6 0 -7.2 4.9 -3.3 3.4 -6 6.6 -6.2 7.1 -0.2 0.5 -1 0.9 -1.8 0.9 -0.7 0 -2.3 1.4 -3.6 3 -2 2.8 -4.8 4.4 -3.2 1.8z"/>
 </g>
 <g fill="#d03c1d">
  <path d="M454 123.3 c0 -21 0.1 -21.3 5.1 -21.3 2.2 0 3.9 0.5 3.9 1 0 0.6 1.7 1 3.9 1 3.8 0 3.8 0 4.5 -4.6 0.3 -2.6 0.6 -7.3 0.6 -10.5 0 -5.4 0.2 -5.9 2.1 -5.9 l2.2 0 -0.5 25.8 c-0.6 29.7 -0.7 30.2 -7.6 30.2 -3.1 0 -4.1 -0.3 -3.7 -1.2 0.4 -0.7 0 -0.5 -0.8 0.5 -0.9 1.1 -2.8 1.7 -5.6 1.7 l-4.1 0 0 -16.7z"/>
  <path d="M551 112.7 c-1.9 -1.4 -1.4 -4.7 0.6 -4.7 0.9 0 1.4 1.1 1.4 3 0 3.4 0 3.4 -2 1.7z"/>
  <path d="M532.4 94.5 c-0.8 -2.1 0.4 -3.5 3.2 -3.5 1.8 0 2.4 -0.5 2.4 -2.3 0 -3.4 4.2 -6.9 7.6 -6.5 2.8 0.3 2.8 0.3 -3.5 7.1 -6.3 6.7 -8.7 8 -9.7 5.2z"/>
 </g>
 <g fill="#1073b3">
  <path d="M54.6 147.2 c-4.9 -7.8 -6.3 -9.2 -8.5 -9.2 -4.1 0 -7.1 -1.1 -7.1 -2.6 0 -1.5 2.3 -1.7 9.4 -0.8 3.7 0.6 4.7 1.1 5.2 3 0.7 2.6 2.9 2.2 3.7 -0.7 0.3 -1.3 1.4 -1.9 3.1 -1.9 1.4 0 2.6 -0.4 2.6 -1 0 -0.5 0.7 -1 1.6 -1 1.1 0 1.4 -0.5 1 -1.6 -0.3 -0.9 -0.6 -1.8 -0.6 -2 0 -0.2 -0.6 -0.4 -1.3 -0.4 -1.4 0 -3.7 -6.6 -3.7 -10.6 0 -1.5 0.5 -2.4 1.2 -2.2 1.1 0.4 13.8 22.1 13.8 23.6 0 0.4 -3.3 4.3 -7.3 8.6 l-7.3 8 -5.8 -9.2z"/>
  <path d="M38 127.1 c-1.2 -2.3 -1.4 -8.1 -0.2 -8.1 0.4 0 1.6 1.4 2.6 3.1 l1.8 3.1 4.8 -11.3 c2.7 -6.3 5.3 -11.4 5.9 -11.4 0.6 0 2.5 2.4 4.2 5.4 l3.1 5.4 -3.9 -0.5 -3.9 -0.6 -3.5 8.4 c-3.3 8 -3.5 8.4 -6.6 8.4 -2.2 0 -3.6 -0.6 -4.3 -1.9z"/>
  <path d="M22.4 94.9 l-5.2 -3 -0.7 -6.4 c-0.6 -5.7 -0.4 -6.7 1.5 -8.7 1.2 -1.3 3.7 -4.9 5.6 -8 3.8 -6.3 7.4 -7.9 7.4 -3.4 0 1.3 0.7 2.7 1.6 3 1.7 0.6 1.6 3.4 -0.2 18.9 l-0.6 4.7 3.6 0 c4.8 0 4.5 1.7 -0.6 4 -5.6 2.5 -6.3 2.5 -12.4 -1.1z"/>
  <path d="M53 84.5 c0 -2.1 0.5 -2.5 3 -2.5 4.3 0 3.6 2.6 -1.2 4.3 -1.4 0.5 -1.8 0.1 -1.8 -1.8z"/>
  <path d="M27 58.5 c0 -0.8 -0.4 -1.5 -0.8 -1.5 -1.1 0 -3.2 -4.6 -3.2 -7 0 -1 -0.5 -2 -1.1 -2.2 -1 -0.3 -0.2 -3.8 1 -3.8 0.9 0 8.1 13 8.1 14.6 0 0.8 -0.9 1.4 -2 1.4 -1.1 0 -2 -0.7 -2 -1.5z"/>
  <path d="M41.6 45.1 c-0.3 -0.5 -1.5 -0.7 -2.5 -0.4 -1.1 0.3 -5.1 0 -9 -0.7 l-7 -1.2 3.4 -6.9 c4.6 -9.1 6.4 -9.2 12.8 -0.9 4.5 5.8 5.8 9.2 3.8 10.5 -0.5 0.3 -1.2 0.1 -1.5 -0.4z"/>
  <path d="M118 33.9 c-1.4 -0.6 -4.2 -0.8 -6.3 -0.5 -2.6 0.4 -5.8 -0.1 -10.2 -1.6 -6.2 -2.2 -6.5 -2.5 -6.5 -5.5 0 -3.1 0.1 -3.2 7.3 -4.8 3.9 -0.9 9.8 -1.9 13 -2.2 l5.7 -0.6 0 8.2 c0 4.4 -0.1 8.1 -0.2 8 -0.2 0 -1.4 -0.5 -2.8 -1z"/>
 </g>
 <g fill="#d7441d">
  <path d="M465 109.4 c0 -1.7 -0.5 -2 -2.5 -1.6 -1.4 0.2 -2.5 0.8 -2.5 1.2 0 0.5 -1.2 0.5 -2.7 0.1 l-2.8 -0.7 -0.3 -13.7 c-0.2 -13 -0.2 -13.7 1.7 -13.7 1.1 0 2.6 0.7 3.5 1.5 0.8 0.8 2.6 1.5 4 1.5 1.4 0 2.6 0.5 2.6 1 0 0.6 0.9 1 1.9 1 3.1 0 4.1 -5.1 4.1 -20.1 0 -13.6 0.1 -13.9 2.2 -13.9 l2.1 0 -0.7 23.8 c-0.7 26.2 -1.4 31.7 -3.6 31.7 -0.8 0 -2.1 0.4 -2.7 0.8 -0.7 0.5 -1.3 0.5 -1.3 0.1 0 -0.4 -0.7 0.1 -1.5 1.2 -1.4 1.9 -1.4 1.9 -1.5 -0.2z"/>
  <path d="M534 93.2 c0 -3.5 2.7 -6.2 6.4 -6.2 2.6 0 2.6 0 1 2.5 -0.9 1.4 -3 3.5 -4.5 4.6 l-2.9 2 0 -2.9z"/>
 </g>
 <g fill="#df4b1b">
  <path d="M464.5 92 c-0.6 -0.9 0.1 -1.4 1.8 -1.1 0.4 0 0.7 -0.3 0.7 -0.9 0 -0.5 -1.4 -0.8 -3 -0.6 -2.5 0.3 -2.8 0.1 -1.9 -1 1.4 -1.7 1.3 -1.7 -2.9 -0.4 -2.9 0.8 -3.3 0.7 -2.8 -0.7 0.4 -0.8 0 -2.1 -0.8 -2.7 -1 -0.8 -1.6 -5.2 -2.1 -16.8 l-0.6 -15.8 11.3 0 11.3 0 -0.3 14.2 c-0.1 7.9 -0.4 15.7 -0.7 17.3 -0.3 1.7 -0.5 3.4 -0.4 3.9 0 0.7 -7.5 5.6 -8.6 5.6 -0.2 0 -0.7 -0.4 -1 -1z"/>
  <path d="M543 83.9 c0 -2.2 0.7 -4.2 1.8 -5.3 1.8 -1.5 2 -1.5 3.5 0.2 1.6 1.7 1.5 2 -1.8 5.2 l-3.5 3.4 0 -3.5z"/>
  <path d="M550 83.7 c0 -1.3 0.7 -3 1.5 -3.7 1.3 -1.1 1.5 -0.9 1.5 1.3 0 1.3 -0.7 3 -1.5 3.7 -1.3 1.1 -1.5 0.9 -1.5 -1.3z"/>
 </g>
 <g fill="#107bbd">
  <path d="M52.2 142.5 c-1.7 -2.8 -3.4 -4.5 -4.7 -4.5 -1.1 0 -3 -0.3 -4.3 -0.6 -1.9 -0.6 -2.2 -1.1 -1.7 -3.5 0.4 -1.8 0.2 -2.9 -0.4 -2.9 -0.6 0 -1.1 -1.9 -1.1 -4.2 0.1 -3.5 0.3 -4 1.1 -2.5 0.9 1.6 1.9 0.1 6 -9.4 2.7 -6.1 5.1 -11.4 5.3 -11.7 0.3 -0.2 0.8 0.7 1.1 2.1 0.4 1.3 1.7 3 2.9 3.7 2.3 1.2 8.6 12.5 8.6 15.4 0 0.9 0.6 1.6 1.4 1.6 1.4 0 4.8 8.8 3.9 10.2 -0.2 0.5 -1.3 0.6 -2.4 0.3 -1.3 -0.4 -1.9 -0.2 -1.9 0.9 0 2 -2 3.1 -3 1.6 -1.2 -1.9 -3.2 -0.1 -2.4 2.2 0.5 1.7 0.3 2 -1.1 1.4 -1.4 -0.5 -1.6 -0.2 -1.2 1.3 0.4 1.7 -0.9 3.1 -2.9 3.1 -0.3 0 -1.7 -2 -3.2 -4.5z"/>
  <path d="M28 96.8 c0 -3 1.3 -5.8 2.7 -5.8 2.2 0 1.3 6.4 -0.9 6.8 -1 0.2 -1.8 -0.2 -1.8 -1z"/>
  <path d="M34 93.6 c0 -2.5 1.7 -3.6 5.6 -3.6 1.4 0 2.4 -0.6 2.4 -1.4 0 -1.7 2.2 -2.6 6.1 -2.6 4.5 0 3.5 1.7 -3.2 5 -10.1 5.2 -10.9 5.3 -10.9 2.6z"/>
  <path d="M29 86.8 c0 -3 1.3 -5.8 2.6 -5.8 0.9 0 1.4 1.2 1.4 3.5 0 2.8 -0.4 3.5 -2 3.5 -1.1 0 -2 -0.6 -2 -1.2z"/>
  <path d="M16.5 83.1 c-0.9 -1.5 0.2 -6.1 1.5 -6.1 0.6 0 1 -0.7 1 -1.5 0 -0.7 0.6 -1.8 1.3 -2.2 0.6 -0.4 2.4 -3.1 3.9 -6 2.3 -4.4 2.6 -6 2.1 -10.2 -0.7 -5.7 0.4 -6.5 3 -2.2 2.9 4.9 2.2 9.3 -2.7 16.8 -5.8 9.1 -9.2 12.8 -10.1 11.4z"/>
  <path d="M31 70.3 c0 -1.3 0.5 -2.3 1 -2.3 1.3 0 1.3 1.1 0 3 -0.8 1.2 -1 1.1 -1 -0.7z"/>
  <path d="M13.6 69.4 c-0.3 -0.9 -0.6 -2.4 -0.6 -3.5 0 -2.5 4.7 -11.9 6 -11.9 1.5 0 1.1 6.1 -0.5 9 -0.8 1.4 -1.4 3.7 -1.5 5.3 0 3 -2.4 3.8 -3.4 1.1z"/>
  <path d="M21 48.3 c0 -1 0.4 -2.4 0.9 -3.2 0.7 -1 1.2 -0.8 2.5 1 2.2 3.2 2 3.9 -0.9 3.9 -1.7 0 -2.5 -0.5 -2.5 -1.7z"/>
  <path d="M36.9 38.8 c-1.8 -2.4 -3.7 -4.9 -4.2 -5.5 -0.7 -1 -0.2 -1.3 2.2 -1.3 2.4 0 3.1 0.4 3.1 2 0 1.1 0.7 2 1.5 2 1 0 1.5 1.1 1.5 3.5 0 1.9 -0.2 3.5 -0.4 3.5 -0.2 0 -1.9 -1.9 -3.7 -4.2z"/>
  <path d="M118 33.9 c-1.4 -0.6 -3.8 -0.8 -5.5 -0.6 -1.6 0.3 -5.1 0.1 -7.7 -0.5 -4.1 -0.8 -4.8 -1.3 -4.8 -3.4 l0 -2.4 5.2 2 c2.8 1 5.5 1.7 6 1.4 0.4 -0.3 0.8 0 0.8 0.5 0 2.4 3.9 1 5.2 -1.9 2 -4.5 3.8 -3.8 3.8 1.5 0 2.5 -0.1 4.5 -0.2 4.4 -0.2 0 -1.4 -0.5 -2.8 -1z"/>
  <path d="M100.7 23.5 c0.4 -1.8 1.5 -2.4 6.8 -3.3 8.2 -1.6 10.5 -1.5 10.5 0.2 0 1 -2 1.8 -5.7 2.6 -3.2 0.6 -7.2 1.5 -8.9 1.9 -2.8 0.8 -3 0.7 -2.7 -1.4z"/>
 </g>
 <g fill="#1782bf">
  <path d="M43.8 137.3 c-1 -0.2 -1.8 -1.2 -1.8 -2.1 0 -0.9 -0.7 -2.6 -1.5 -3.6 -1.5 -1.9 -2.1 -8.6 -0.9 -8.6 0.4 0 1.3 0.8 2 1.8 1.1 1.4 1.3 1.4 1.4 0.2 0 -1.3 0.1 -1.3 1 0 0.6 0.9 0.5 1.7 -0.3 2.2 -0.9 0.6 -0.9 0.8 0.1 0.8 0.6 0 1.2 0.6 1.2 1.3 0 0.7 1.1 2.9 2.5 5 l2.6 3.7 -2.3 -0.1 c-1.3 -0.1 -3.1 -0.3 -4 -0.6z"/>
  <path d="M21.8 136.3 c-1 -0.2 -1.8 -1.1 -1.8 -1.9 0 -1 1.3 -1.4 4.5 -1.4 3.8 0 4.5 0.3 4.5 2 0 1.5 -0.6 2 -2.7 1.9 -1.6 -0.1 -3.6 -0.3 -4.5 -0.6z"/>
  <path d="M28.3 95.9 c0.4 -1.3 0.7 -2.7 0.7 -3.1 0 -0.5 0.7 -0.8 1.6 -0.8 2.3 0 1.4 5.4 -1 5.8 -1.5 0.3 -1.8 0 -1.3 -1.9z"/>
  <path d="M38 91.7 c0 -2.6 1.6 -3.7 5.6 -3.7 1.5 0 2.4 -0.6 2.4 -1.5 0 -1 1.1 -1.5 3.5 -1.5 1.9 0 3.5 0.4 3.5 0.9 0 0.6 -3 2.4 -6.7 4.2 -3.8 1.8 -7.1 3.4 -7.5 3.6 -0.5 0.2 -0.8 -0.7 -0.8 -2z"/>
  <path d="M29 88.8 c0 -3.9 1.2 -6.8 2.6 -6.8 1 0 1.4 1.3 1.4 4.5 0 3.8 -0.3 4.5 -2 4.5 -1.4 0 -2 -0.7 -2 -2.2z"/>
  <path d="M16.7 82.3 c-1.2 -1.9 -3.4 -13.9 -3 -16.4 0.6 -4 8.6 -22 9.4 -21.2 2.7 2.8 7.4 13.3 7.4 16.3 -0.1 5.7 -12.1 24.1 -13.8 21.3z"/>
  <path d="M30 76.8 c0 -3.5 1.4 -8.8 2.2 -8.8 0.5 0 0.6 0.5 0.3 1 -0.3 0.6 -0.1 1 0.4 1 0.6 0 1.1 1.8 1.1 4 0 3.3 -0.3 4 -2 4 -1.1 0 -2 -0.6 -2 -1.2z"/>
  <path d="M39.1 41.4 l-3.2 -4.4 3 0 c2.4 0 3.1 0.4 3.1 2 0 1.1 0.7 2 1.5 2 1.9 0 2 3.6 0.1 4.3 -0.8 0.3 -2.6 -1.2 -4.5 -3.9z"/>
  <path d="M32.8 33 l-2.8 -3.5 2.6 -0.3 c3.3 -0.4 3.6 -0.1 3.2 3.9 l-0.3 3.4 -2.7 -3.5z"/>
  <path d="M105 31.5 l0 -2.4 4.5 1.7 c3.6 1.3 4.2 1.8 2.8 2.4 -1 0.3 -3 0.7 -4.5 0.7 -2.3 0.1 -2.8 -0.3 -2.8 -2.4z"/>
  <path d="M97 26.5 c0 -4.5 0 -4.5 3.5 -4.5 4.5 0 4.7 2.6 0.3 3.5 l-3.1 0.7 3.1 1.4 c4.2 1.7 4.1 3.4 -0.3 3.4 -3.5 0 -3.5 0 -3.5 -4.5z"/>
  <path d="M105 22 c0 -1.6 0.7 -2 3.5 -2 4 0 4.9 2.4 1.3 3.4 -3.8 1 -4.8 0.7 -4.8 -1.4z"/>
 </g>
 <g fill="#e6700d">
  <path d="M574.4 137.8 c-2.4 -2.7 -2.9 -4 -2.6 -7.5 0.3 -3.4 0.7 -4.2 2.8 -4.7 1.3 -0.4 2.4 -1.1 2.4 -1.6 0 -0.6 0.7 -1 1.5 -1 0.8 0 1.5 -0.7 1.5 -1.5 0 -0.8 1.4 -1.7 3.5 -2.1 3.4 -0.6 3.8 -0.3 12.8 9.1 5 5.4 9.6 10.4 10 11.1 0.7 1.2 -1.8 1.4 -14.1 1.4 l-14.8 0 -3 -3.2z"/>
  <path d="M563 125.8 l-6.5 -7.1 6.3 0.6 c3.5 0.3 6.5 0.7 6.7 0.9 0.8 0.8 1.7 12.8 0.9 12.8 -0.5 -0.1 -3.8 -3.3 -7.4 -7.2z"/>
  <path d="M551.8 113.3 c-1.6 -1.7 -1.8 -4 -1.8 -16.9 0.1 -11.5 0.4 -15.3 1.5 -16.8 0.8 -1.1 1.7 -1.7 2 -1.4 0.3 0.3 0.4 8.7 0.3 18.8 -0.3 17.4 -0.4 18.1 -2 16.3z"/>
  <path d="M547 80 c0 -1.9 0.3 -2.1 1.2 -1.2 0.9 0.9 0.9 1.5 0 2.4 -0.9 0.9 -1.2 0.7 -1.2 -1.2z"/>
 </g>
 <g fill="#eb6516">
  <path d="M550.8 102.3 c-0.6 -2.8 0.2 -5.3 1.8 -5.3 0.9 0 1.4 1.1 1.4 3.5 0 3.7 -2.4 5 -3.2 1.8z"/>
  <path d="M517 77.8 c-9.1 -9.9 -18 -19.8 -19.8 -21.9 l-3.4 -3.9 15.1 0 15 0 12.3 13.5 c6.8 7.5 12.4 14 12.6 14.4 0.3 0.9 -13.6 16.1 -14.6 16 -0.4 0 -8.1 -8.1 -17.2 -18.1z"/>
  <path d="M550.1 84.3 c0 -0.4 0.4 -1.7 0.9 -2.8 0.8 -1.9 0.9 -1.9 0.9 0.2 0.1 1.2 -0.3 2.5 -0.9 2.8 -0.5 0.3 -1 0.3 -0.9 -0.2z"/>
 </g>
 <g fill="#ec7c0c">
  <path d="M570.2 133.7 c-1.8 -1.8 -2.9 -3.6 -2.6 -4 0.4 -0.4 0.2 -0.7 -0.5 -0.7 -0.8 0 -1.1 -0.8 -0.8 -1.9 0.3 -1.4 -0.5 -2.2 -3.3 -3.5 -4.4 -1.9 -13.4 -12.2 -12.5 -14.3 0.3 -0.8 0.5 -1.9 0.5 -2.4 0 -0.5 0.7 -0.9 1.5 -0.9 0.8 0 1.5 0.7 1.5 1.6 0 0.8 0.6 2.2 1.4 2.9 1.2 1.2 1.5 1.2 2 0 0.3 -0.8 1.4 -1.5 2.5 -1.5 1 0 2.1 -0.7 2.5 -1.5 0.3 -0.8 1.7 -1.5 3.1 -1.5 2.2 0 2.5 -0.4 2.5 -3.7 l0.1 -3.8 10.9 11.5 c9.9 10.5 12.3 14.1 8.3 12.5 -1.2 -0.4 -1.3 -0.2 -0.5 0.8 1.6 1.9 -1.8 4.7 -4 3.4 -1.9 -1.3 -4.7 1 -4.1 3.3 0.4 1.6 -3.2 7 -4.6 7 -0.4 0 -2.2 -1.5 -3.9 -3.3z"/>
  <path d="M550.7 86 c-0.7 -2.8 0.3 -6 1.9 -6 1 0 1.4 1.3 1.4 4 0 4.3 -2.3 5.7 -3.3 2z"/>
 </g>
 <g fill="#f0860c">
  <path d="M554.5 115.7 l-3.5 -3.4 0 -13.5 c0 -14.7 0 -14.8 5.8 -14.8 1.9 0 3.3 0.9 4.7 3 1.6 2.4 2.7 3 5.8 3 4.2 0 4.6 0.9 1.7 3.5 -2.7 2.5 -2.5 3.6 1.4 7.5 3.7 3.8 3.7 5.6 0 9.1 -2 1.9 -2.4 2 -2.4 0.6 0 -2.1 -1.9 -2.2 -2.6 -0.2 -0.4 0.8 -1.4 1.5 -2.3 1.5 -2.3 0 -3.3 1.1 -2.3 2.4 0.5 0.7 0.1 1.8 -1 2.9 -1.8 1.7 -2 1.6 -5.3 -1.6z"/>
 </g>
 <g fill="#f5930d">
  <path d="M567.6 94.1 c0.6 -1.1 0 -1.3 -2.9 -0.8 -3 0.5 -3.8 0.2 -5.2 -1.9 -1.3 -2 -1.9 -2.3 -3.1 -1.3 -1.7 1.4 -1.9 -0.2 -0.3 -1.8 0.9 -0.9 0.6 -1 -1 -0.6 -1.3 0.3 -2.7 1.5 -3.1 2.7 -0.6 1.5 -0.9 0.3 -0.9 -4.2 l-0.1 -6.3 11.2 -12.2 c6.2 -6.7 12 -13 12.8 -13.9 1.3 -1.4 4 -1.7 17.1 -2 l15.6 -0.3 -16.6 17.9 c-23.6 25.5 -24.3 26.3 -23.5 24.7z"/>
 </g>
 <g fill="#2ea0d3">
  <path d="M35 137 c-6.3 -0.4 -12.5 -0.8 -13.7 -0.9 -4 -0.2 -2.7 -4.1 3.8 -11.3 3.8 -4.3 6.5 -6.5 7.4 -6.1 1 0.3 1.5 -0.2 1.5 -1.5 0 -4.5 2.1 -2.9 5.9 4.5 2.2 4.3 5.2 9.7 6.6 12.1 1.7 2.6 2.1 4.1 1.3 4 -0.7 -0.1 -6.5 -0.5 -12.8 -0.8z"/>
  <path d="M28.5 95.3 c0.2 -1.6 0.7 -4.5 1 -6.5 0.8 -5.3 3.5 -5.2 3.5 0.2 0 2.9 0.4 4 1.5 4 2.5 0 1.7 1.8 -1.5 3.5 -4.1 2.1 -5 1.9 -4.5 -1.2z"/>
  <path d="M48 86.7 c0 -1.7 1 -2.8 3.5 -4 2 -0.9 3.8 -2.4 4.1 -3.2 0.6 -1.4 5.4 -2.2 5.4 -1 0 1.4 -3.1 6.3 -4.2 6.8 -0.7 0.3 -3 1.2 -5 2.1 -3.8 1.6 -3.8 1.6 -3.8 -0.7z"/>
  <path d="M30 79.8 c0 -4.8 1 -7.8 2.6 -7.8 1 0 1.4 1.5 1.4 5.5 0 4.8 -0.2 5.5 -2 5.5 -1.6 0 -2 -0.7 -2 -3.2z"/>
  <path d="M60 71.3 c0.1 -4.7 1.9 -7.3 5.3 -7.3 l2.7 0 -2.7 5.5 c-3.2 6.5 -5.3 7.2 -5.3 1.8z"/>
  <path d="M46 60.6 c0 -0.1 0.5 -1.7 1.1 -3.5 1.5 -4.3 3.9 -4.1 3.9 0.4 0 3.1 -0.3 3.5 -2.5 3.5 -1.4 0 -2.5 -0.2 -2.5 -0.4z"/>
  <path d="M37 38.4 c-6.3 -8.4 -6.8 -9.4 -4.7 -9.4 2.6 0 4.7 1.2 4.7 2.6 0 0.8 0.5 1.4 1 1.4 0.6 0 1 1.1 1 2.5 0 1.8 0.5 2.5 2 2.5 1.3 0 2 0.7 2 2 0 1.1 0.7 2 1.5 2 2.1 0 1.9 2.7 -0.3 3.2 -1.3 0.4 -3.2 -1.5 -7.2 -6.8z"/>
  <path d="M132.8 38.8 l-14.8 -5 0 -5.9 c0 -3.4 -0.4 -5.9 -1 -5.9 -2.1 0 -16.5 3.2 -17.8 3.9 -0.9 0.5 1.5 1.8 6.4 3.6 l7.9 2.9 -3 1.2 c-1.7 0.7 -3.2 0.9 -3.5 0.4 -0.3 -0.4 -2.2 -1 -4.2 -1.4 -2 -0.4 -3.8 -1.2 -4 -1.8 -0.3 -0.7 -5.5 0.2 -15.7 2.6 -8.5 2 -18.2 4 -21.7 4.3 l-6.4 0.6 0 -3.2 c0 -4.3 2.6 -8.1 5.6 -8.1 1.6 0 2.8 -0.9 3.8 -2.9 1.3 -2.4 4 -3.7 19.7 -9.7 10.1 -3.8 18.7 -7.1 19.2 -7.3 0.6 -0.2 0.8 2.5 0.5 6.6 l-0.3 6.9 5.5 -1.1 5.5 -1.1 0.3 -6.2 c0.2 -3.4 0.7 -6.2 1.2 -6.2 0.4 0 4.2 3.7 8.3 8.1 5.8 6.4 8.2 8.2 10.3 8.3 2.3 0.1 3.8 1.4 8 7.2 l5.1 7.2 1.7 -2.9 c1.1 -1.9 2.5 -2.9 4.2 -2.9 1.3 0 2.4 0.3 2.4 0.6 0 1.1 -7.3 12.4 -7.9 12.3 -0.3 0 -7.2 -2.3 -15.3 -5.1z m-6.8 -15.6 c-2.2 -0.8 -4 0.8 -4 3.5 l0.1 2.8 2.4 -3 c1.4 -1.6 2 -3.2 1.5 -3.3z"/>
 </g>
 <g fill="#24b0df">
  <path d="M37 136 c0 -1.5 4.8 -10.1 5.3 -9.3 0.8 1.4 -0.5 8.3 -1.4 7.7 -0.5 -0.3 -0.9 -0.1 -0.9 0.5 0 0.5 1 1.2 2.3 1.4 1.2 0.2 0.5 0.4 -1.5 0.4 -2.1 0 -3.8 -0.3 -3.8 -0.7z"/>
  <path d="M34.3 122.7 c-2.9 -0.5 -5.3 -1.2 -5.3 -1.5 0 -0.4 1.6 -2.2 3.4 -4 l3.5 -3.4 2.1 4.7 c1.2 2.6 2 4.8 1.8 4.9 -0.2 0.1 -2.7 -0.2 -5.5 -0.7z"/>
  <path d="M29.3 93.2 c0.4 -2.6 0.9 -9.3 1.3 -14.9 0.4 -5.7 1.1 -10.3 1.5 -10.3 0.5 0 2.2 1.4 4 3.1 1.7 1.7 3.2 2.9 3.4 2.7 0.4 -0.5 7.1 -15.2 7.3 -16.1 0.1 -0.4 1.5 -3.4 3.2 -6.7 3.6 -7 3.6 -7 1 -7 -1.3 0 -2 -0.7 -2 -2 0 -1.1 0.4 -2 0.8 -2 0.5 0 2.3 -2.9 4.1 -6.5 2.7 -5.3 3.7 -6.5 5.7 -6.5 2.9 0 3 0.6 0.4 4.8 l-2 3.2 4.3 -0.6 c2.3 -0.4 11.1 -2.4 19.5 -4.4 l15.3 -3.7 6.6 2.7 c8.4 3.3 9.6 5.5 2.7 4.7 -2.7 -0.3 -5 -1 -5.2 -1.6 -0.2 -0.6 -2 -1.1 -4 -1.1 -3.8 0.1 -25.7 5.1 -26.7 6.2 -0.3 0.3 1.4 2.3 3.9 4.3 l4.6 3.7 -2.9 3.7 c-1.6 2 -4.2 6.6 -5.9 10.3 -1.7 3.7 -4 7.7 -5.1 9 -1.2 1.2 -2 2.7 -1.7 3.3 0.2 0.6 -0.8 3.5 -2.3 6.5 -2.5 5.2 -3.1 5.8 -12.6 10.7 -5.5 2.8 -12.2 6.1 -14.9 7.2 l-4.9 2.1 0.6 -4.8z"/>
  <path d="M39 40.8 c-1.8 -2.4 -3.8 -4.9 -4.3 -5.5 -0.7 -1 -0.2 -1.3 2.2 -1.3 2.6 0 3.1 0.4 3.1 2.5 0 1.8 0.5 2.5 2 2.5 1.6 0 2 0.7 2 3 0 4 -1.1 3.8 -5 -1.2z"/>
  <path d="M148 41.3 c-4.5 -1.3 -4.5 -1.3 -3 -2.3 1.8 -1.2 6 -1.3 6 -0.2 0 1.6 -1.6 2.9 -3 2.5z"/>
  <path d="M151.2 33.3 c0.3 -3.5 0.6 -3.8 3.7 -4.1 l3.3 -0.3 -2.8 4 c-1.6 2.2 -3.3 4.1 -3.7 4.1 -0.5 0 -0.7 -1.7 -0.5 -3.7z"/>
  <path d="M119.6 34.2 c-1.3 -2.1 -1.4 -11.1 -0.2 -12.8 1.6 -2.2 8.5 -2.5 10.9 -0.5 1 0.8 3.1 1.4 4.8 1.3 2.3 -0.2 2.9 0.2 2.9 1.8 0 1.1 0.7 2 1.5 2 1.1 0 1.5 1.1 1.5 3.6 0 4.2 -0.8 3.8 -5.1 -2.1 l-3.2 -4.4 -3.9 5 c-4.8 5.9 -8 8 -9.2 6.1z"/>
  <path d="M98 24.1 c0 -0.5 0.6 -2.7 1.4 -4.9 0.8 -2.2 1.2 -4.9 0.9 -6 -0.7 -2.9 1.2 -5.8 4.8 -7.1 l3.2 -1.1 -0.6 3.4 c-0.3 1.9 -1.4 5.3 -2.5 7.7 -1.7 3.6 -1.8 4.5 -0.6 4.7 2.2 0.5 1.7 2.9 -0.8 3.6 -3.3 0.8 -5.8 0.7 -5.8 -0.3z"/>
  <path d="M108 21 c0 -1.8 0.5 -2.1 3.8 -1.8 2.4 0.2 4.1 -0.2 4.9 -1.2 1.1 -1.3 1.2 -1.2 1.3 0.7 0 2.6 -0.4 2.9 -5.7 3.8 -3.9 0.6 -4.3 0.5 -4.3 -1.5z"/>
  <path d="M114 8.9 c0 -2.4 0.4 -3 1.8 -2.7 1 0.2 1.8 1.4 2 3.1 0.3 2.2 -0.1 2.7 -1.7 2.7 -1.7 0 -2.1 -0.6 -2.1 -3.1z"/>
 </g>
 <g fill="#3cbae3">
  <path d="M37 136.5 c0 -1.5 4.5 -9.3 5.1 -8.9 1 0.6 -3.1 9.4 -4.3 9.4 -0.4 0 -0.8 -0.2 -0.8 -0.5z"/>
  <path d="M33.5 122.3 c-4.6 -0.7 -4.8 -1.6 -1.2 -5.1 l3.3 -3.2 2.2 4.5 c2.4 5 2.6 4.8 -4.3 3.8z"/>
  <path d="M68.2 41.9 c-7.2 -6 -8.1 -7.9 -3.8 -7.9 1.2 0 8.6 -1.6 16.5 -3.5 16.7 -4.1 18.1 -4.2 17.4 -1.6 -0.3 1.4 -1.8 2.1 -5.1 2.7 -2.6 0.4 -3.9 0.9 -2.9 1.1 1.2 0.3 1.7 1.4 1.7 3.8 0 3.5 -0.1 3.6 -6.2 4.9 -2.6 0.6 -2.8 0.4 -2.8 -2.9 0 -2 0.5 -3.5 1.2 -3.5 0.6 0 0.9 -0.3 0.5 -0.6 -1.1 -1.1 -15.7 2.7 -15.7 4.2 0 0.8 1 1.4 2.6 1.4 1.7 0 2.8 0.6 3.1 2 0.4 1.3 1.4 2 3.1 2 2.4 0 2.5 0 0.7 2 -1 1.1 -2.1 2 -2.4 2 -0.3 0 -3.9 -2.8 -7.9 -6.1z"/>
  <path d="M36.6 37.4 c-3.1 -4.2 -5.5 -7.8 -5.3 -8 0.5 -0.5 29.1 -2.3 29.6 -1.8 0.2 0.2 -1.3 3.8 -3.4 7.9 -3 5.7 -4.5 7.7 -6.8 8.5 -6.5 2.2 -8 1.5 -14.1 -6.6z"/>
  <path d="M141.5 35.3 c-2.1 -3.2 -5.1 -7.4 -6.6 -9.4 -2.8 -3.5 -2.8 -3.6 -0.6 -3.4 1.2 0.1 2.8 0.3 3.5 0.4 0.6 0 1.2 1 1.2 2.1 0 1.1 0.7 2 1.5 2 0.8 0 1.5 0.7 1.5 1.5 0 0.8 0.5 1.5 1 1.5 0.6 0 1 0.7 1 1.5 0 0.8 0.5 1.5 1 1.5 0.6 0 1 0.7 1 1.5 0 0.8 0.7 1.5 1.5 1.5 0.8 0 1.5 -0.7 1.5 -1.5 0 -0.8 0.9 -1.5 2 -1.5 1.5 0 2 -0.7 2 -2.9 0 -3.5 1 -4.4 4 -3.3 l2.2 0.8 -2.4 3 c-1.3 1.6 -3.5 4.6 -4.7 6.7 -3.4 5.5 -5.9 5 -10.6 -2z"/>
  <path d="M109 32.6 c0 -0.9 0.7 -1.2 2.1 -0.9 1.6 0.4 1.7 0.8 0.7 1.4 -1.9 1.3 -2.8 1.1 -2.8 -0.5z"/>
  <path d="M119 33.2 c0 -0.4 1.1 -0.9 2.6 -1 1.4 -0.1 2.3 0.2 1.9 0.8 -0.7 1.2 -4.5 1.4 -4.5 0.2z"/>
  <path d="M98 24.7 c0 -0.9 3.5 -10.4 4.7 -12.6 0.7 -1.5 1.3 -3.1 1.3 -3.8 0 -0.7 1 -1.7 2.1 -2.4 2.1 -1.1 2.2 -1 1.6 3.1 -0.3 2.4 -1 4.6 -1.5 4.9 -0.5 0.3 -1.2 1.9 -1.6 3.4 -0.7 2.8 -0.6 2.8 3.1 2.2 6.4 -1.1 6.3 -1 6.3 -7.5 0 -4.6 0.3 -6 1.5 -6 1.7 0 2.8 4.8 2.3 10.9 l-0.3 4.4 -8.5 1.8 c-8.6 1.8 -11 2.2 -11 1.6z"/>
 </g>
 <g fill="#50c4e9">
  <path d="M38 135 c0 -1.6 3.1 -7.3 3.6 -6.7 0.2 0.2 -0.3 2 -1.1 4 -1.5 3.7 -2.5 4.7 -2.5 2.7z"/>
  <path d="M32 121 c0 -0.5 0.3 -0.9 0.8 -0.9 2.2 0.4 3.2 -0.3 3.2 -2.3 0 -1.7 -0.3 -1.9 -0.9 -0.9 -0.5 0.8 -1.1 0.9 -1.5 0.3 -0.3 -0.5 0 -1.5 0.7 -2.1 1.1 -0.8 1.7 -0.3 3 2.5 2.2 4.5 2.3 4.4 -1.8 4.4 -1.9 0 -3.5 -0.4 -3.5 -1z"/>
  <path d="M67.7 41.2 l-6.8 -5.7 4.8 -1.1 c2.6 -0.7 10.8 -2.6 18.1 -4.4 l13.4 -3.1 7.4 2.7 c4.1 1.5 7.1 3 6.7 3.4 -0.9 0.8 -21 7.4 -25.5 8.4 -1.4 0.3 -4 1.7 -5.6 3.1 -1.7 1.4 -3.6 2.5 -4.3 2.4 -0.8 0 -4.5 -2.6 -8.2 -5.7z"/>
  <path d="M144.7 39.8 c-0.2 -0.7 -3 -4.8 -6.1 -9.1 -4.5 -6.3 -5.3 -7.9 -4 -8.4 1.6 -0.6 20.2 3.3 22.5 4.7 1.8 1.2 -7.1 14 -9.7 14 -1.2 0 -2.4 -0.6 -2.7 -1.2z"/>
  <path d="M99.6 20.8 c3.4 -9.9 5.9 -14.8 7.6 -15.4 1 -0.3 3.7 -0.3 5.9 0.1 l4 0.7 -0.3 7.6 -0.3 7.5 -8.5 1.8 c-4.7 1 -8.8 1.8 -9.2 1.9 -0.4 0 0 -1.9 0.8 -4.2z"/>
 </g>
</svg>